<?xml version="1.0" encoding="utf-8"?>
<!-- Generator: Adobe Illustrator 18.0.0, SVG Export Plug-In . SVG Version: 6.00 Build 0)  -->
<!DOCTYPE svg PUBLIC "-//W3C//DTD SVG 1.1//EN" "http://www.w3.org/Graphics/SVG/1.1/DTD/svg11.dtd">
<svg version="1.1" xmlns="http://www.w3.org/2000/svg" xmlns:xlink="http://www.w3.org/1999/xlink" x="0px" y="0px"
	 viewBox="0 0 544.7 544.7" style="enable-background:new 0 0 544.7 544.7;" xml:space="preserve">
<style type="text/css">
	.st0{fill:url(#SVGID_1_);}
	.st1{fill:none;stroke:#000000;stroke-width:2;stroke-miterlimit:10;}
	.st2{fill:none;stroke:#000000;stroke-miterlimit:10;}
	.st3{fill:#8AC8ED;}
</style>
<g id="Layer_4">
	
		<radialGradient id="SVGID_1_" cx="272.33" cy="272.33" r="272.33" gradientTransform="matrix(4.489653e-011 1 -0.4 1.795869e-011 381.262 0)" gradientUnits="userSpaceOnUse">
		<stop  offset="0" style="stop-color:#3C3C3C"/>
		<stop  offset="1" style="stop-color:#050505"/>
	</radialGradient>
	<path class="st0" d="M464.9,79.8C358.5-26.6,186.1-26.6,79.8,79.8c-106.3,106.3-106.3,278.8,0,385.1s278.8,106.4,385.1,0
		C571.3,358.5,571.3,186.1,464.9,79.8z M277.8,266.9c3,3,3,7.9,0,10.9c-3,3-7.8,3-10.8,0s-3-7.9,0-10.8
		C269.9,263.9,274.8,263.9,277.8,266.9z"/>
</g>
<g id="Layer_5">
	<path class="st1" d="M272.3,18C131.9,18,18,131.9,18,272.3c0,140.4,113.9,254.3,254.3,254.3s254.3-113.9,254.3-254.3
		C526.7,131.9,412.8,18,272.3,18z M272.3,264.7c4.2,0,7.7,3.4,7.7,7.7c0,4.2-3.4,7.7-7.7,7.7s-7.7-3.4-7.7-7.7
		C264.7,268.1,268.1,264.7,272.3,264.7z"/>
	<path class="st1" d="M272.3,41.3c-127.6,0-231,103.4-231,231s103.4,231,231,231s231-103.4,231-231S399.9,41.3,272.3,41.3z
		 M272.3,264.7c4.2,0,7.7,3.4,7.7,7.7c0,4.2-3.4,7.7-7.7,7.7s-7.7-3.4-7.7-7.7C264.7,268.1,268.1,264.7,272.3,264.7z"/>
	<path class="st1" d="M272.3,74C162.8,74,74,162.8,74,272.3c0,109.5,88.8,198.3,198.3,198.3s198.3-88.8,198.3-198.3
		C470.7,162.8,381.9,74,272.3,74z M272.3,264.7c4.2,0,7.7,3.4,7.7,7.7c0,4.2-3.4,7.7-7.7,7.7s-7.7-3.4-7.7-7.7
		C264.7,268.1,268.1,264.7,272.3,264.7z"/>
	<path class="st1" d="M272.3,89.5c-101,0-182.8,81.8-182.8,182.8s81.9,182.8,182.8,182.8s182.8-81.9,182.8-182.8
		S373.3,89.5,272.3,89.5z M272.3,264.7c4.2,0,7.7,3.4,7.7,7.7c0,4.2-3.4,7.7-7.7,7.7s-7.7-3.4-7.7-7.7
		C264.7,268.1,268.1,264.7,272.3,264.7z"/>
	<path class="st2" d="M272.3,121.5c-83.3,0-150.8,67.5-150.8,150.8c0,83.3,67.5,150.8,150.8,150.8s150.8-67.5,150.8-150.8
		C423.1,189.1,355.6,121.5,272.3,121.5z M272.3,264.7c4.2,0,7.7,3.4,7.7,7.7c0,4.2-3.4,7.7-7.7,7.7s-7.7-3.4-7.7-7.7
		C264.7,268.1,268.1,264.7,272.3,264.7z"/>
</g>
<g id="Layer_6">
	<path d="M272.3,158C209.2,158,158,209.2,158,272.3c0,63.1,51.2,114.3,114.3,114.3s114.3-51.2,114.3-114.3
		C386.7,209.2,335.5,158,272.3,158z M272.3,264.7c4.2,0,7.7,3.4,7.7,7.7c0,4.2-3.4,7.7-7.7,7.7s-7.7-3.4-7.7-7.7
		C264.7,268.1,268.1,264.7,272.3,264.7z"/>
</g>
<g id="Layer_7">
	<path class="st3" d="M272.3,176c-53.2,0-96.3,43.1-96.3,96.3c0,53.2,43.1,96.3,96.3,96.3s96.3-43.1,96.3-96.3
		C368.7,219.1,325.5,176,272.3,176z M272.3,280c-4.2,0-7.7-3.4-7.7-7.7c0-4.2,3.4-7.7,7.7-7.7s7.7,3.4,7.7,7.7
		C280,276.6,276.6,280,272.3,280z"/>
</g>
<g id="Layer_8">
	<g>
		<path d="M296.1,362.7c-0.5,0.2-1.2,0.5-2.1,0.7c-1.1,0.3-2,0.2-2.6-0.2c-0.6-0.3-1-0.9-1.2-1.7c-0.2-0.8-0.1-1.5,0.2-2
			c0.5-0.8,1.4-1.3,2.5-1.6c0.3-0.1,0.7-0.1,0.9-0.1l-0.8-3.5l1.1-0.3L296.1,362.7z M294,358.8c-0.3,0-0.6,0-1,0.1
			c-1.4,0.3-2.1,1.2-1.8,2.4c0.3,1.2,1.2,1.5,2.5,1.2c0.5-0.1,0.9-0.2,1.1-0.3L294,358.8z"/>
		<path d="M288.2,359.9c0.1,0.8,0.2,1.4,0.4,2l-1,0.2l-0.2-1.3l-0.1,0c-0.1,0.9-0.8,1.6-1.5,1.7c-0.1,0-0.2,0-0.3,0l-0.2-1.1
			c0.1,0,0.2,0,0.4,0c0.8-0.1,1.3-0.9,1.3-1.8c0-0.2,0-0.4,0-0.6l-0.6-3.4l1.2-0.2L288.2,359.9z"/>
		<path d="M277.9,360c-0.2-2.4,1.3-3.6,2.9-3.8c1.8-0.2,3.2,1,3.4,3c0.2,2.2-1.1,3.6-2.9,3.8C279.5,363.2,278.1,362,277.9,360z
			 M283.1,359.4c-0.1-1.4-1.1-2.4-2.2-2.3c-1.1,0.1-1.9,1.3-1.7,2.7c0.1,1.1,0.8,2.4,2.2,2.3C282.7,362,283.2,360.7,283.1,359.4z"/>
		<path d="M277.8,354.8c-0.5,0.1-1,0.2-1.3,0.5c-0.3,0.4-0.4,0.9-0.3,2.5l0.2,5.4l-1.2,0l-0.2-5.9c0-1.3,0.1-2.1,0.7-2.7
			c0.5-0.5,1.4-0.8,2-0.8L277.8,354.8z M275.1,365.1c0-0.4,0.2-0.7,0.7-0.8c0.4,0,0.7,0.3,0.8,0.7c0,0.4-0.3,0.8-0.7,0.8
			C275.4,365.8,275.1,365.5,275.1,365.1z"/>
		<path d="M272.4,359.9c0-1.6-1-2.3-2.2-2.3c-0.8,0-1.4,0.1-1.8,0.3l-0.2-0.8c0.4-0.2,1.1-0.4,2.2-0.4c2,0,3.2,1.4,3.1,3.3
			s-1.2,3.5-3.1,3.4c-2.1,0-2.6-1.9-2.6-3.1c0-0.2,0-0.4,0.1-0.5L272.4,359.9z M268.9,360.7c0,0.8,0.3,1.9,1.6,2
			c1.2,0,1.7-1.1,1.8-1.9L268.9,360.7z"/>
		<path d="M261.9,356.5c0.3-0.1,1-0.3,1.9-0.2c2,0.2,3.1,1.6,2.9,3.6c-0.2,2-1.7,3.3-3.8,3.1c-0.7-0.1-1.3-0.3-1.6-0.5l0.4-0.9
			c0.3,0.2,0.7,0.4,1.3,0.4c1.5,0.1,2.4-0.9,2.5-2.2c0.1-1.5-0.7-2.5-2-2.6c-0.7-0.1-1.1,0.1-1.5,0.2L261.9,356.5z"/>
		<path d="M257.8,364.1l0.3-1.8l-1.7-0.3l0.1-0.9l1.7,0.3l0.5-3.5c0.1-0.8,0-1.3-0.7-1.4c-0.3,0-0.5,0-0.7,0l0.1-0.9
			c0.2-0.1,0.6-0.1,1.1,0c0.5,0.1,1,0.3,1.2,0.7c0.3,0.4,0.3,1,0.2,1.7l-0.5,3.5l1,0.2l-0.1,0.9l-1-0.2l-0.2,1.5L257.8,364.1z"/>
		<path d="M248.7,353.5l0.6,2.2c0.3,0.9,0.4,1.4,0.6,2l0,0c0.4-0.4,0.8-0.8,1.4-1.5l1.6-1.6l1.3,0.3l-3.8,3.7l1.4,5l-1.3-0.3
			l-0.6-2.4c-0.2-0.7-0.3-1.2-0.4-1.7l0,0c-0.4,0.5-0.7,0.8-1.2,1.3l-1.7,1.7l-1.3-0.3l3.8-3.6l-1.5-5.2L248.7,353.5z"/>
	</g>
	<g>
		<path d="M249.5,181.7c0.5-0.2,1.2-0.5,2.2-0.7c1.1-0.3,2-0.2,2.6,0.2c0.6,0.3,1,0.9,1.2,1.7c0.2,0.8,0.1,1.5-0.3,2
			c-0.5,0.8-1.4,1.3-2.5,1.6c-0.3,0.1-0.7,0.1-0.9,0.1l0.8,3.5l-1.1,0.3L249.5,181.7z M251.6,185.7c0.3,0,0.6,0,1-0.1
			c1.4-0.3,2.1-1.2,1.8-2.4c-0.3-1.2-1.2-1.5-2.5-1.3c-0.5,0.1-0.9,0.2-1.1,0.3L251.6,185.7z"/>
		<path d="M257.4,184.6c-0.1-0.8-0.2-1.4-0.4-2l1-0.2l0.2,1.3l0.1,0c0.2-0.9,0.8-1.6,1.6-1.7c0.1,0,0.2,0,0.3,0l0.2,1.1
			c-0.1,0-0.2,0-0.4,0c-0.8,0.1-1.3,0.8-1.3,1.7c0,0.2,0,0.4,0,0.6l0.5,3.4l-1.2,0.2L257.4,184.6z"/>
		<path d="M267.7,184.6c0.2,2.4-1.4,3.6-2.9,3.7c-1.8,0.2-3.2-1-3.4-3.1c-0.2-2.2,1.1-3.6,2.9-3.7
			C266.1,181.4,267.5,182.6,267.7,184.6z M262.6,185.1c0.1,1.4,1,2.4,2.2,2.3c1.1-0.1,1.9-1.2,1.7-2.7c-0.1-1.1-0.8-2.4-2.2-2.3
			C262.9,182.5,262.5,183.9,262.6,185.1z"/>
		<path d="M267.8,189.8c0.5-0.1,1-0.2,1.3-0.5c0.3-0.4,0.4-0.9,0.4-2.5l-0.2-5.4l1.2,0l0.2,5.9c0,1.3-0.1,2.1-0.7,2.7
			c-0.5,0.5-1.4,0.8-2,0.8L267.8,189.8z M270.6,179.5c0,0.4-0.2,0.7-0.7,0.7c-0.4,0-0.7-0.3-0.7-0.7c0-0.4,0.3-0.7,0.7-0.8
			C270.3,178.8,270.6,179.1,270.6,179.5z"/>
		<path d="M273.2,184.8c0,1.6,1,2.3,2.2,2.3c0.8,0,1.4-0.1,1.8-0.3l0.2,0.9c-0.4,0.2-1.1,0.4-2.2,0.3c-2-0.1-3.2-1.4-3.1-3.4
			c0.1-2,1.3-3.5,3.2-3.4c2.1,0.1,2.6,1.9,2.6,3.1c0,0.2,0,0.4-0.1,0.5L273.2,184.8z M276.7,184c0-0.8-0.3-1.9-1.6-2
			c-1.2,0-1.8,1-1.9,1.9L276.7,184z"/>
		<path d="M283.7,188.3c-0.3,0.1-1,0.3-1.9,0.2c-2-0.2-3.1-1.7-2.9-3.6c0.2-2,1.7-3.3,3.8-3.1c0.7,0.1,1.3,0.3,1.6,0.5l-0.4,0.9
			c-0.3-0.2-0.7-0.4-1.3-0.4c-1.5-0.2-2.4,0.9-2.5,2.2c-0.2,1.5,0.7,2.5,2,2.6c0.7,0.1,1.1-0.1,1.5-0.2L283.7,188.3z"/>
		<path d="M287.8,180.8l-0.3,1.8l1.7,0.3l-0.1,0.9l-1.7-0.3l-0.6,3.5c-0.1,0.8,0,1.3,0.7,1.4c0.3,0.1,0.5,0,0.7,0l-0.1,0.9
			c-0.2,0.1-0.6,0.1-1.1,0c-0.5-0.1-1-0.3-1.2-0.7c-0.3-0.4-0.3-1-0.2-1.7l0.6-3.5l-1-0.2l0.1-0.9l1,0.2l0.3-1.5L287.8,180.8z"/>
		<path d="M296.8,191.4l-0.6-2.2c-0.3-0.9-0.4-1.4-0.5-2l0,0c-0.4,0.4-0.8,0.8-1.4,1.5l-1.6,1.6l-1.3-0.4l3.9-3.7l-1.4-5l1.3,0.4
			l0.6,2.4c0.2,0.7,0.3,1.2,0.4,1.7l0,0c0.4-0.5,0.7-0.8,1.2-1.3l1.8-1.7l1.3,0.4l-3.8,3.5l1.5,5.2L296.8,191.4z"/>
	</g>
</g>
</svg>
