<?xml version="1.0" encoding="utf-8"?>
<!-- Generator: Adobe Illustrator 18.0.0, SVG Export Plug-In . SVG Version: 6.00 Build 0)  -->
<!DOCTYPE svg PUBLIC "-//W3C//DTD SVG 1.1//EN" "http://www.w3.org/Graphics/SVG/1.1/DTD/svg11.dtd">
<svg version="1.1" xmlns="http://www.w3.org/2000/svg" xmlns:xlink="http://www.w3.org/1999/xlink" x="0px" y="0px"
	 viewBox="0 0 544.7 544.7" style="enable-background:new 0 0 544.7 544.7;" xml:space="preserve">
<style type="text/css">
	.st0{fill:url(#SVGID_1_);}
	.st1{fill:none;stroke:#000000;stroke-width:2;stroke-miterlimit:10;}
	.st2{fill:none;stroke:#000000;stroke-miterlimit:10;}
	.st3{fill:#57B947;}
</style>
<g id="Layer_4">
	
		<radialGradient id="SVGID_1_" cx="272.33" cy="272.33" r="272.33" gradientTransform="matrix(0.7071 0.7071 -0.2828 0.2828 156.7902 2.737)" gradientUnits="userSpaceOnUse">
		<stop  offset="0" style="stop-color:#3C3C3C"/>
		<stop  offset="1" style="stop-color:#050505"/>
	</radialGradient>
	<path class="st0" d="M272.3,0C121.9,0,0,121.9,0,272.3s121.9,272.3,272.3,272.3s272.3-121.9,272.3-272.3S422.7,0,272.3,0z
		 M272.3,280c-4.2,0-7.7-3.4-7.7-7.7c0-4.2,3.4-7.7,7.7-7.7s7.7,3.4,7.7,7.7C280,276.6,276.6,280,272.3,280z"/>
</g>
<g id="Layer_5">
	<path class="st1" d="M272.3,19C131.9,19,18,132.9,18,273.3s113.9,254.3,254.3,254.3s254.3-113.9,254.3-254.3S412.8,19,272.3,19z
		 M272.3,281c-4.2,0-7.7-3.4-7.7-7.7c0-4.2,3.4-7.7,7.7-7.7s7.7,3.4,7.7,7.7C280,277.6,276.6,281,272.3,281z"/>
	<path class="st1" d="M272.3,42.3c-127.6,0-231,103.4-231,231s103.4,231,231,231s231-103.4,231-231S399.9,42.3,272.3,42.3z
		 M272.3,281c-4.2,0-7.7-3.4-7.7-7.7c0-4.2,3.4-7.7,7.7-7.7s7.7,3.4,7.7,7.7C280,277.6,276.6,281,272.3,281z"/>
	<path class="st1" d="M272.3,75C162.8,75,74,163.8,74,273.3s88.8,198.3,198.3,198.3s198.3-88.8,198.3-198.3S381.9,75,272.3,75z
		 M272.3,281c-4.2,0-7.7-3.4-7.7-7.7c0-4.2,3.4-7.7,7.7-7.7s7.7,3.4,7.7,7.7C280,277.6,276.6,281,272.3,281z"/>
	<path class="st1" d="M272.3,90.5c-101,0-182.8,81.8-182.8,182.8s81.9,182.8,182.8,182.8s182.8-81.9,182.8-182.8
		S373.3,90.5,272.3,90.5z M272.3,281c-4.2,0-7.7-3.4-7.7-7.7c0-4.2,3.4-7.7,7.7-7.7s7.7,3.4,7.7,7.7C280,277.6,276.6,281,272.3,281z
		"/>
	<path class="st2" d="M272.3,122.5c-83.3,0-150.8,67.5-150.8,150.8S189,424.1,272.3,424.1s150.8-67.5,150.8-150.8
		S355.6,122.5,272.3,122.5z M272.3,281c-4.2,0-7.7-3.4-7.7-7.7c0-4.2,3.4-7.7,7.7-7.7s7.7,3.4,7.7,7.7
		C280,277.6,276.6,281,272.3,281z"/>
</g>
<g id="Layer_6">
	<path d="M272.3,159C209.2,159,158,210.2,158,273.3s51.2,114.3,114.3,114.3s114.3-51.2,114.3-114.3S335.5,159,272.3,159z M272.3,281
		c-4.2,0-7.7-3.4-7.7-7.7c0-4.2,3.4-7.7,7.7-7.7s7.7,3.4,7.7,7.7C280,277.6,276.6,281,272.3,281z"/>
</g>
<g id="Layer_7">
	<path class="st3" d="M272.3,177c-53.2,0-96.3,43.1-96.3,96.3s43.1,96.3,96.3,96.3s96.3-43.1,96.3-96.3S325.5,177,272.3,177z
		 M272.3,281c-4.2,0-7.7-3.4-7.7-7.7c0-4.2,3.4-7.7,7.7-7.7s7.7,3.4,7.7,7.7C280,277.6,276.6,281,272.3,281z"/>
</g>
</svg>
